<svg width="217" height="54" viewBox="0 0 217 54" fill="none" xmlns="http://www.w3.org/2000/svg">
<rect y="44" width="216.391" height="1" fill="#C2CDD8"/>
<path d="M0.421875 0.015625H216.422V44.0156H0.421875V0.015625Z" fill="white"/>
<path d="M15.7543 22.5611H17.0653L19.6875 26.9744H19.7983L22.4205 22.5611H23.7315L20.3153 28.1193V32.0156H19.1705V28.1193L15.7543 22.5611ZM27.1423 32.1634C26.5021 32.1634 25.9405 32.011 25.4573 31.7063C24.9772 31.4016 24.6017 30.9754 24.3309 30.4276C24.0631 29.8797 23.9292 29.2396 23.9292 28.5071C23.9292 27.7685 24.0631 27.1237 24.3309 26.5728C24.6017 26.0219 24.9772 25.5941 25.4573 25.2894C25.9405 24.9847 26.5021 24.8324 27.1423 24.8324C27.7824 24.8324 28.3426 24.9847 28.8227 25.2894C29.3059 25.5941 29.6814 26.0219 29.9491 26.5728C30.2199 27.1237 30.3554 27.7685 30.3554 28.5071C30.3554 29.2396 30.2199 29.8797 29.9491 30.4276C29.6814 30.9754 29.3059 31.4016 28.8227 31.7063C28.3426 32.011 27.7824 32.1634 27.1423 32.1634ZM27.1423 31.1847C27.6286 31.1847 28.0287 31.06 28.3426 30.8107C28.6565 30.5614 28.8889 30.2337 29.0397 29.8274C29.1905 29.4212 29.2659 28.9811 29.2659 28.5071C29.2659 28.0331 29.1905 27.5915 29.0397 27.1822C28.8889 26.7728 28.6565 26.442 28.3426 26.1896C28.0287 25.9373 27.6286 25.8111 27.1423 25.8111C26.656 25.8111 26.2559 25.9373 25.942 26.1896C25.6281 26.442 25.3957 26.7728 25.2449 27.1822C25.0941 27.5915 25.0187 28.0331 25.0187 28.5071C25.0187 28.9811 25.0941 29.4212 25.2449 29.8274C25.3957 30.2337 25.6281 30.5614 25.942 30.8107C26.2559 31.06 26.656 31.1847 27.1423 31.1847ZM36.6872 29.1165V24.9247H37.7767V32.0156H36.6872V30.8153H36.6133C36.4471 31.1754 36.1886 31.4817 35.8378 31.734C35.4869 31.9833 35.0437 32.108 34.5082 32.108C34.065 32.108 33.6711 32.011 33.3264 31.8171C32.9817 31.6201 32.7109 31.3247 32.5139 30.9308C32.3169 30.5337 32.2184 30.0336 32.2184 29.4304V24.9247H33.3079V29.3565C33.3079 29.8736 33.4526 30.286 33.7419 30.5938C34.0343 30.9015 34.4067 31.0554 34.8591 31.0554C35.1299 31.0554 35.4054 30.9862 35.6854 30.8477C35.9686 30.7092 36.2055 30.4968 36.3964 30.2106C36.5903 29.9244 36.6872 29.5597 36.6872 29.1165ZM39.9722 32.0156V24.9247H41.0247V25.9957H41.0986C41.2278 25.6449 41.4617 25.3602 41.8003 25.1417C42.1388 24.9232 42.5205 24.8139 42.9452 24.8139C43.0252 24.8139 43.1252 24.8155 43.2452 24.8185C43.3653 24.8216 43.4561 24.8262 43.5176 24.8324V25.9403C43.4807 25.9311 43.396 25.9173 43.2637 25.8988C43.1344 25.8772 42.9975 25.8665 42.8528 25.8665C42.5081 25.8665 42.2004 25.9388 41.9295 26.0835C41.6618 26.225 41.4494 26.422 41.2925 26.6744C41.1386 26.9237 41.0616 27.2083 41.0616 27.5284V32.0156H39.9722ZM51.8383 32.1634C51.1551 32.1634 50.5657 32.0125 50.0702 31.7109C49.5778 31.4062 49.1977 30.9815 48.93 30.4368C48.6653 29.889 48.5329 29.2519 48.5329 28.5256C48.5329 27.7992 48.6653 27.1591 48.93 26.6051C49.1977 26.0481 49.5701 25.6141 50.0471 25.3033C50.5273 24.9893 51.0874 24.8324 51.7275 24.8324C52.0969 24.8324 52.4616 24.8939 52.8216 25.017C53.1817 25.1402 53.5095 25.3402 53.805 25.6172C54.1004 25.8911 54.3358 26.2543 54.5113 26.7067C54.6867 27.1591 54.7744 27.7161 54.7744 28.3778V28.8395H49.3085V27.8977H53.6665C53.6665 27.4976 53.5864 27.1406 53.4264 26.8267C53.2694 26.5128 53.0448 26.265 52.7524 26.0835C52.4631 25.9019 52.1215 25.8111 51.7275 25.8111C51.2936 25.8111 50.9181 25.9188 50.6011 26.1342C50.2872 26.3466 50.0456 26.6236 49.8763 26.9652C49.7071 27.3068 49.6224 27.6731 49.6224 28.0639V28.6918C49.6224 29.2273 49.7148 29.6812 49.8994 30.0536C50.0872 30.4229 50.3472 30.7045 50.6796 30.8984C51.012 31.0893 51.3982 31.1847 51.8383 31.1847C52.1246 31.1847 52.3831 31.1446 52.6139 31.0646C52.8478 30.9815 53.0494 30.8584 53.2187 30.6953C53.3879 30.5291 53.5187 30.3229 53.6111 30.0767L54.6636 30.3722C54.5528 30.7292 54.3666 31.0431 54.105 31.3139C53.8434 31.5817 53.5203 31.791 53.1356 31.9418C52.7509 32.0895 52.3184 32.1634 51.8383 32.1634ZM56.6317 32.0156V24.9247H57.6843V26.0327H57.7766C57.9243 25.6541 58.1629 25.3602 58.4922 25.1509C58.8215 24.9386 59.217 24.8324 59.6786 24.8324C60.1464 24.8324 60.5357 24.9386 60.8466 25.1509C61.1605 25.3602 61.4052 25.6541 61.5806 26.0327H61.6545C61.836 25.6664 62.1084 25.3756 62.4716 25.1602C62.8347 24.9416 63.2702 24.8324 63.778 24.8324C64.412 24.8324 64.9306 25.0309 65.3338 25.4279C65.737 25.8219 65.9385 26.4358 65.9385 27.2699V32.0156H64.8491V27.2699C64.8491 26.7467 64.7059 26.3728 64.4197 26.1481C64.1335 25.9234 63.7965 25.8111 63.4087 25.8111C62.9101 25.8111 62.5239 25.9619 62.25 26.2635C61.9761 26.562 61.8391 26.9406 61.8391 27.3991V32.0156H60.7312V27.1591C60.7312 26.7559 60.6004 26.4312 60.3388 26.185C60.0772 25.9357 59.7402 25.8111 59.3278 25.8111C59.0446 25.8111 58.7799 25.8865 58.5337 26.0373C58.2906 26.1881 58.0936 26.3974 57.9428 26.6651C57.7951 26.9298 57.7212 27.236 57.7212 27.5838V32.0156H56.6317ZM70.2172 32.1818C69.7679 32.1818 69.3601 32.0972 68.9938 31.9279C68.6276 31.7556 68.3368 31.5078 68.1213 31.1847C67.9059 30.8584 67.7982 30.4645 67.7982 30.0028C67.7982 29.5966 67.8782 29.2673 68.0382 29.0149C68.1983 28.7595 68.4122 28.5594 68.6799 28.4148C68.9477 28.2701 69.2431 28.1624 69.5663 28.0916C69.8925 28.0178 70.2203 27.9593 70.5496 27.9162C70.9805 27.8608 71.3298 27.8192 71.5975 27.7915C71.8684 27.7608 72.0653 27.71 72.1884 27.6392C72.3146 27.5684 72.3777 27.4453 72.3777 27.2699V27.233C72.3777 26.7775 72.2531 26.4235 72.0038 26.1712C71.7576 25.9188 71.3836 25.7926 70.882 25.7926C70.3619 25.7926 69.9541 25.9065 69.6586 26.1342C69.3632 26.362 69.1554 26.6051 69.0354 26.8636L68.0013 26.4943C68.186 26.0634 68.4322 25.728 68.7399 25.4879C69.0508 25.2448 69.3893 25.0755 69.7556 24.9801C70.1249 24.8816 70.488 24.8324 70.845 24.8324C71.0728 24.8324 71.3344 24.8601 71.6298 24.9155C71.9284 24.9678 72.2161 25.0771 72.4931 25.2433C72.7732 25.4094 73.0056 25.6603 73.1902 25.9957C73.3749 26.3312 73.4672 26.7805 73.4672 27.3438V32.0156H72.3777V31.0554H72.3223C72.2485 31.2093 72.1254 31.3739 71.953 31.5494C71.7807 31.7248 71.5514 31.8741 71.2651 31.9972C70.9789 32.1203 70.6296 32.1818 70.2172 32.1818ZM70.3834 31.2031C70.8143 31.2031 71.1774 31.1185 71.4729 30.9492C71.7714 30.7799 71.9961 30.5614 72.1469 30.2937C72.3008 30.0259 72.3777 29.7443 72.3777 29.4489V28.4517C72.3316 28.5071 72.23 28.5579 72.073 28.604C71.9191 28.6471 71.7406 28.6856 71.5375 28.7195C71.3375 28.7502 71.142 28.7779 70.9512 28.8026C70.7635 28.8241 70.6111 28.8426 70.4942 28.858C70.2111 28.8949 69.9464 28.9549 69.7002 29.038C69.457 29.118 69.2601 29.2396 69.1093 29.4027C68.9615 29.5627 68.8877 29.7812 68.8877 30.0582C68.8877 30.4368 69.0277 30.723 69.3078 30.9169C69.5909 31.1077 69.9495 31.2031 70.3834 31.2031ZM75.6558 32.0156V24.9247H76.7452V32.0156H75.6558ZM76.2097 23.7429C75.9974 23.7429 75.8143 23.6706 75.6604 23.5259C75.5096 23.3813 75.4342 23.2074 75.4342 23.0043C75.4342 22.8011 75.5096 22.6272 75.6604 22.4826C75.8143 22.3379 75.9974 22.2656 76.2097 22.2656C76.4221 22.2656 76.6037 22.3379 76.7545 22.4826C76.9084 22.6272 76.9853 22.8011 76.9853 23.0043C76.9853 23.2074 76.9084 23.3813 76.7545 23.5259C76.6037 23.6706 76.4221 23.7429 76.2097 23.7429ZM80.0302 22.5611V32.0156H78.9407V22.5611H80.0302Z" fill="#626A72"/>
</svg>
